<?xml version="1.0" encoding="utf-8"?>
<!-- Generator: Adobe Illustrator 24.2.3, SVG Export Plug-In . SVG Version: 6.00 Build 0)  -->
<svg version="1.1" id="Réteg_1" xmlns="http://www.w3.org/2000/svg" xmlns:xlink="http://www.w3.org/1999/xlink" x="0px" y="0px"
	 viewBox="0 0 2448 1731.5" style="enable-background:new 0 0 2448 1731.5;" xml:space="preserve">
<style type="text/css">
	.st0{fill:#6C63FF;}
	.st1{fill:#C6850D;}
	.st2{fill:none;}
</style>
<g>
	<path class="st0" d="M2448,7.9v1723.7H1245.5c-3.9-142.3-23.6-318.5,60.1-471c2.4-4.3,4.8-8.6,7.3-12.9
		c199.2-336.1,632.8-144.1,824.2-472.5c143.2-245.7-10.3-506.1,153.4-682.8C2336,43.3,2391.1,18.9,2448,7.9z"/>
	<path class="st1" d="M2376,1731.5H22.1c33.2-51.7,81.9-107.9,150.2-135.7c151.2-61.5,241,80.3,380.9,46.8
		c194.5-46.5,174.2-357.3,370.5-464.4c97.1-53,178-18.3,381.8,82.2c78.3,38.6,174.8,87,297.3,143.9
		C1989.1,1583.7,2270.6,1678.6,2376,1731.5z"/>
	<rect class="st2" width="2448" height="1731.5"/>
</g>
</svg>
